<?xml version="1.0" encoding="utf-8"?>
<svg width="23" height="21" viewBox="0 0 23 21" fill="none" xmlns="http://www.w3.org/2000/svg">
  <path d="M12.7206 2.40551L12.7203 2.40576L11.8739 3.35732L11.5003 3.77727L11.1267 3.35732L10.2802 2.40576L10.2797 2.40514C8.28247 0.152585 5.09737 -0.169649 2.9764 1.80201C0.482212 4.1245 0.344816 8.32357 2.58455 10.8495L10.8987 20.2148C10.8987 20.2149 10.8988 20.2149 10.8988 20.2149C11.237 20.5955 11.7593 20.5955 12.0975 20.2149C12.0975 20.2149 12.0975 20.2149 12.0976 20.2148L20.4119 10.8493L20.412 10.8492C22.6556 8.32335 22.5183 4.12461 20.0243 1.80213L12.7206 2.40551ZM12.7206 2.40551C14.7223 0.15233 17.9032 -0.169452 20.024 1.80187L12.7206 2.40551Z" style="paint-order: fill markers; stroke: rgb(16, 16, 16);"/>
  <path style="fill: rgb(216, 216, 216); stroke: rgb(255, 255, 255); stroke-width: 0.5px; stroke-miterlimit: 3.47;" d="M 13.077 3.316 C 13.281 3.036 13.556 2.48 13.839 2.266 C 14.801 1.538 16.32 1.589 17.448 1.377 C 18.051 1.263 18.66 1.567 19.024 1.931 C 19.084 1.991 19.551 2.504 19.494 2.537 C 19.247 2.682 18.779 2.468 18.522 2.447 C 17.742 2.382 17.117 2.37 16.352 2.58 C 15.694 2.761 14.918 2.853 14.239 2.943 C 14.162 2.953 13.632 3.07 13.601 2.978 C 13.538 2.786 13.768 2.655 13.886 2.554 C 14.38 2.132 14.971 2.216 15.595 2.216 C 15.809 2.216 16.004 2.229 16.216 2.254 C 16.462 2.282 16.698 2.318 16.943 2.351 C 17.211 2.388 17.479 2.421 17.747 2.438 C 18.053 2.457 18.34 2.475 18.619 2.438 C 18.726 2.424 18.931 2.564 18.941 2.457 C 18.944 2.426 18.359 2.369 18.342 2.367 C 17.771 2.31 17.23 2.285 16.674 2.408 C 16.515 2.443 16.356 2.465 16.197 2.499 C 16.115 2.517 15.865 2.535 15.948 2.535 C 16.346 2.535 16.739 2.497 17.137 2.497 C 17.253 2.497 17.37 2.497 17.486 2.497 C 17.539 2.497 17.697 2.517 17.645 2.507 C 16.997 2.38 16.351 2.166 15.697 2.037 C 15.518 2.001 15.342 1.967 15.161 1.947 C 15.089 1.939 14.986 1.929 14.911 1.916 C 14.88 1.91 14.785 1.905 14.816 1.905 C 15.254 1.905 15.683 2.038 16.117 2.065 C 16.189 2.069 16.388 2.089 16.473 2.1 C 16.557 2.11 16.81 2.126 16.726 2.126 C 16.482 2.126 16.199 2.012 15.963 1.95 C 15.94 1.944 15.723 1.912 15.714 1.881 C 15.705 1.844 15.791 1.884 15.829 1.881 C 16.171 1.859 15.862 1.863 16.13 1.863 C 16.381 1.863 16.631 1.863 16.882 1.863 C 17.041 1.863 16.872 1.795 16.876 1.794 C 17.23 1.725 17.636 1.87 17.976 1.957 C 18.077 1.983 18.659 2.093 18.704 2.185 C 18.723 2.223 18.619 2.192 18.577 2.192 C 18.397 2.192 18.378 2.207 18.22 2.159 C 17.976 2.085 17.418 1.774 17.244 1.965 C 17.214 1.998 16.928 1.97 16.878 1.965 C 16.815 1.96 16.624 1.941 16.688 1.941 C 16.836 1.941 17.053 2.09 17.19 2.152 C 17.261 2.185 17.489 2.232 17.41 2.232 C 17.371 2.232 17.315 2.17 17.282 2.144 C 16.9 1.846 17.177 2.081 17.336 1.869 C 17.38 1.81 17.301 1.666 17.317 1.648 C 17.4 1.563 17.74 1.776 17.829 1.808 C 17.833 1.809 18.112 1.924 18.104 1.932 C 18.04 1.995 17.805 1.875 17.867 1.812 C 17.892 1.786 18.117 1.88 18.12 1.916 C 18.123 1.954 18.029 1.892 18.024 1.854 C 18.013 1.755 18.292 2.04 18.207 2.093 C 17.978 2.235 17.674 2.238 17.416 2.287 C 16.977 2.37 16.518 2.501 16.072 2.526 C 15.91 2.535 15.313 2.425 15.188 2.549 C 15.14 2.596 15.315 2.594 15.38 2.611 C 15.612 2.672 15.837 2.745 16.071 2.787 C 16.165 2.804 16.258 2.843 16.349 2.87 C 16.379 2.879 16.456 2.864 16.439 2.89 C 16.414 2.931 16.035 2.798 16.013 2.791 C 15.641 2.666 15.235 2.499 14.851 2.418 C 14.728 2.393 15.335 2.52 15.21 2.52 C 14.997 2.52 14.671 2.483 14.467 2.544 C 14.432 2.554 14.093 2.804 14.052 2.727 C 14.008 2.644 14.426 2.498 14.478 2.483 C 15.103 2.296 15.766 2.251 16.417 2.251 C 16.585 2.251 16.751 2.253 16.917 2.265 C 16.988 2.27 17.198 2.299 17.127 2.299 C 16.6 2.299 16.084 2.165 15.563 2.11 C 15.409 2.094 15.256 2.065 15.101 2.065 C 15.028 2.065 14.954 2.065 14.881 2.065 C 14.854 2.065 14.773 2.065 14.8 2.065 C 15.149 2.065 15.513 2 15.869 2 C 15.991 2 16.119 1.991 16.242 2 C 16.29 2.003 16.379 2.074 16.384 2.026 C 16.387 2.001 16.216 1.961 16.201 1.946"/>
</svg>